<?xml version="1.0" encoding="UTF-8"?><svg id="Layer_1" xmlns="http://www.w3.org/2000/svg" viewBox="0 0 139.69 139.69"><defs><style>.cls-1{fill:#5a9dff;}.cls-1,.cls-2{stroke-width:0px;}.cls-2{fill:#6da8ff;}</style></defs><path class="cls-2" d="m89.67,84.9c.11-.13.22-.27.32-.39.09-.13.17-.25.24-.34-.19.29-.4.55-.61.81-.18.22-.35.43-.52.64h0c.14-.18.36-.45.58-.72Z"/><path class="cls-2" d="m90.06,54.27c-.1-.12-.21-.26-.32-.39-.02-.02-.04-.05-.06-.07.21.26.42.52.61.81-.07-.1-.15-.21-.24-.34Z"/><path class="cls-2" d="m89.69,53.81c-.09-.12-.19-.23-.28-.35.09.11.18.23.28.35,0,0,0,0,0,0Z"/><path class="cls-2" d="m114.76,66.09c0-.75-.01-1.5-.02-2.24,0-.37,0-.74,0-1.11,0-.23,0-.46,0-.7-.01-.35.03-.73-.07-1.02-.04-.13-.09-.24-.15-.33-.06-.1-.15-.2-.24-.28-.19-.16-.34-.21-.47-.25-.13-.04-.21-.03-.18-.01.03.02.16.06.35.17-.2-.1-.46-.18-.76-.18h-1.81c-1.29,0-.64.08-1.93.08-2.76.04-5.51.05-8.27.06-.06-.22-.13-.44-.19-.66-.08-.28-.16-.55-.23-.82-.09-.27-.19-.53-.29-.79-.2-.52-.4-1.04-.61-1.59-.22-.54-.51-1.06-.79-1.64.02-.01.07-.04-.21-.61-.19-.44-.46-.85-.71-1.28-.25-.43-.51-.85-.76-1.28-.54-.83-1.14-1.61-1.66-2.37-.59-.71-1.14-1.37-1.62-1.95-.5-.56-.96-1.01-1.27-1.38-.22-.23-.42-.49-.76-.84-.35-.33-.83-.77-1.56-1.39l1.47,1.26s.05-.06.05-.06c-1.87-1.79-4.54-3.65-6.81-4.89,0,0,.02-.05.04-.07l-1.16-.58c-.27-.19-.07-.13.42.09.49.23,1.3.56,2.16,1.11.44.26.9.54,1.38.83.47.3.92.65,1.37.97.23.16.45.32.67.48.11.08.22.16.32.23.1.08.2.17.29.25.39.33.74.63,1.05.89.02-.02.05-.06.07-.08l-.99-.85.03-.04c.37.32.74.63,1.1.94.36.31.72.61,1.03.94.32.33.65.65.96.97.32.32.64.64.92.99.29.34.58.69.87,1.04.29.35.59.69.85,1.07.25.35.51.71.77,1.08-.24-.34-.48-.67-.64-.9.02-.02.04-.03-.34-.57.38.54.78,1.1,1.2,1.69.1.15.21.29.31.44.1.15.19.31.28.47.19.32.38.63.57.95.19.32.38.63.57.95.16.33.33.65.49.97.16.32.32.64.48.95.15.31.32.61.43.92.25.61.16-.06-.72-1.84-.22-.44-.4-.86-.62-1.23-.22-.37-.43-.73-.64-1.08-.21-.35-.42-.71-.64-1.08-.25-.35-.51-.72-.8-1.13l.04-.03c.19.27.41.57.63.89.23.32.42.69.64,1.04.21.35.42.71.62,1.05.1.17.2.33.3.49.08.16.16.32.24.47.16.29.03-.02-.1-.32-.13-.31-.3-.59-.11-.32.32.58.59,1.19.91,1.77-.22-.45-.46-.93-.71-1.43-.25-.5-.58-.98-.87-1.48-.15-.25-.3-.5-.45-.74-.07-.12-.15-.25-.22-.37-.08-.12-.16-.23-.24-.35-.32-.46-.63-.9-.92-1.31-.19-.27-.35-.56-.5-.76-.15-.2-.24-.34-.22-.36-2.07-2.61-4.09-4.36-5.55-5.75-.25-.22-1.06-.81-2.01-1.5-.49-.32-1.04-.63-1.55-.95,0,0,0,0-.01,0-1.11-.71-2.31-1.27-3.49-1.88-.67-.27-1.34-.55-2-.82l-.5-.21c-.17-.06-.34-.11-.52-.17l-1.04-.33-1.04-.33c-.35-.11-.71-.17-1.06-.25-.71-.15-1.42-.33-2.13-.46l-2.16-.29-.54-.07c-.18-.02-.36-.02-.54-.03l-1.09-.05c-.18-.02-.36-.03-.54-.03-.04-.3-.07-.47-.07-.47-.05-.59-.16-1.19-.21-.59,0,.27-.01.65-.02,1.05-.15,0-.29,0-.44,0-.01-.18-.02-.34-.02-.45-.05-.59-.21-4.15-.27-4.74-.07-1.61-.41,2.63-.53,5.2-.74.02-1.49.06-2.23.08-.71.07-1.42.17-2.13.25-.35.05-.71.07-1.06.14-.35.07-.69.14-1.04.22-.35.07-.69.14-1.04.22-.34.07-.69.14-1.02.25-.67.2-1.34.4-2,.59-.34.09-.65.22-.98.34-.32.12-.64.25-.96.37-.32.12-.64.25-.96.37-.32.12-.61.29-.92.43-.61.29-1.87.8-2.44,1.17-.58.35-1.18.7-1.8,1.06-.58.41-1.18.84-1.78,1.27-.62.41-1.16.93-1.75,1.41-.29.25-.58.49-.86.74-.28.26-.54.54-.81.8l-.8.81c-.27.27-.54.54-.77.84-.48.58-.97,1.16-1.44,1.73-.86,1.21-1.73,2.36-2.37,3.55-.17.29-.33.58-.48.85-.15.27-.3.54-.4.81-.22.53-.41,1-.56,1.39-.15.39-.26.71-.34.93-.06.22-.09.35-.09.35-.2.65-.34,1.31-.05.71.14-.3.28-.74.51-1.19.23-.45.47-.93.69-1.37.43-.9.91-1.59.95-1.56.01,0-.07.15-.19.37-.06.11-.14.23-.21.37-.07.14-.14.29-.21.44.05.02-.1.51-.29,1.05-.19.55-.45,1.15-.55,1.46-.09.32-.48,1.4-.82,2.5-.16.63-.31,1.26-.43,1.74-.79,0-1.76,0-2.67,0-2.66-.02-5.35-.05-8.06-.07-.29,0-.61-.02-.86.05-.13.03-.23.07-.34.13-.11.06-.21.16-.29.27-.13.2-.2.43-.22.73v.87s-.02,2.09-.02,2.09c0,1.39-.01,2.79-.02,4.18-.02,2.88-.03,5.75-.05,8.56-.01.31.07.58.17.78.1.22.35.42.55.49.21.1.52.13.82.12h.76c.67.01,1.34.02,2,.03,1.32.02,2.63.04,3.92.06.64.03,1.93.08,2.58.11.44,0,.89.01,1.34.02.03.15.06.3.1.46.09.39.18.81.28,1.24.14.43.28.86.42,1.29.14.43.29.86.42,1.25.14.39.31.74.45,1.04.54,1.23-.12.06-.19.09.31.6.52,1.06.73,1.52.22.45.49.88.84,1.46,0,0,.03.06.08.16.06.1.14.24.24.42.1.18.22.39.37.62.16.22.33.47.51.73.37.51.75,1.09,1.15,1.62.43.51.83.99,1.16,1.38,0,0,.11.13.39.44.13.16.33.36.57.6.25.25.54.54.9.9.47.48.49.46.51.44t-.04.04c.24.23.64.54,1.02.88.38.33.76.67,1.02.87t-.03.04c.13.1.26.21.4.31l.41.29.82.59c.54.4,1.08.81,1.67,1.13t-.03.04c.29.18.57.35.79.49.21.13.35.23.35.24t-.03.05c.55.41,1.8.93,1.77.98t.02-.05c.3.15.59.3.88.44.28.14.56.29.84.39.56.23,1.08.44,1.59.65.25.1.5.21.75.31.25.08.5.16.75.24.49.16.98.31,1.46.47.16.05.32.11.49.16.17.05.33.08.5.12.34.08.68.16,1.03.24.7.16,1.41.34,2.15.42.74.1,1.49.21,2.26.29.67.03,1.35.06,2.04.09,0,2.04,0,4.08.03,6.12.02-2.23.07-3.95.06-6.12.07,0,.14,0,.21,0,.23,0,.47,0,.7,0,0,.47.01.93.02,1.37.02.54.09.09.13-1.37.06,0,.13,0,.19,0,0,.06,0,.13,0,.19,0-.06,0-.13,0-.19,2.8-.06,5.63-.44,8.26-1.13.65-.18,1.28-.44.62-.29.64-.2,1.29-.4,1.93-.59.32-.09.51-.19.65-.25.13-.06.21-.1.28-.14.15-.08.3-.16.92-.41l.93-.39c.31-.13.6-.3.9-.45l1.79-.92c1.13-.72,2.32-1.36,3.38-2.2l.81-.59.41-.3c.13-.1.26-.22.38-.33l1.53-1.31c.26-.21.49-.46.73-.7l.71-.71.71-.72c.23-.24.44-.51.66-.76.43-.52.87-1.02,1.29-1.54l1.17-1.64c.41-.53.73-1.12,1.08-1.7l.52-.87.26-.43.22-.45.88-1.81c.16-.3.26-.62.39-.93l.36-.94.36-.94c.12-.31.2-.64.29-.96l.33-1.13c.45,0,.81,0,.81.03v.05c.64.03,1.93-.03,1.93.03v-.05c2.58,0,4.51.03,6.44.05.22,0,.44,0,.66,0,.31,0,.66.03.94-.05.14-.04.26-.09.36-.15.11-.06.23-.16.32-.26.1-.11.17-.21.22-.33.06-.12.11-.25.13-.41.04-.32.01-.67.02-1,0-.19,0-.38,0-.57,0-.35,0-.7,0-1.05,0-1.42,0-2.89,0-4.37,0-1.49-.01-3-.02-4.5Zm-28.45-26.81s-.08-.05-.12-.07c.04.02.08.05.12.07Zm19.93,21.51v.08h1.29c.97.14-2.82.16-6.12.17-.03-.1-.06-.2-.08-.3,1.69.02,3.41.03,4.92.05Zm-6.44.37v.05h-7.05c-.1-.26-.19-.51-.28-.76,1.72,0,3.2.02,4.11.07.64.03,1.29.11,3.22.11h-1.93v.08c1.07.01,2.24.02,3.44.03l.09.3c-1.07,0-2.09,0-2.88.01v.11h1.29Zm-21.95-23.24c.61.17,1.23.32.64.07.61.19,1.21.37,1.82.56.31.08.49.17.62.21.13.04.21.07.29.09.15.04.31.08.9.32l.89.34c.3.12.57.27.86.41l1.71.84c1.08.67,2.22,1.27,3.22,2.05l.78.56.39.28c.13.1.24.21.37.31l1.45,1.24c.25.2.46.44.69.66l.67.68.67.68c.22.23.41.49.62.73.41.49.83.97,1.22,1.47l1.11,1.56c.39.51.69,1.07,1.02,1.61l.49.82.24.41.21.43.84,1.72c.15.28.25.59.37.88l.35.89.35.89c.11.3.19.61.29.91l.23.74c-2.92,0-5.84,0-8.75,0,0-.01,0-.02-.01-.03-.07-.19-.14-.38-.2-.56-.08-.18-.16-.36-.24-.53-.17-.35-.33-.71-.5-1.07-.18-.36-.41-.71-.63-1.1.02-.01.07-.04-.16-.43-.15-.3-.36-.57-.56-.86-.2-.29-.39-.57-.59-.86-.42-.55-.86-1.08-1.26-1.58-.44-.47-.84-.92-1.2-1.3-.37-.37-.7-.68-.93-.93-.16-.16-.3-.34-.55-.57-.25-.23-.59-.52-1.13-.94l1.07.84s.05-.06.05-.06c-1.36-1.2-3.28-2.43-4.9-3.26,0,0,.02-.05.04-.07l-.83-.38c-.19-.14-.05-.11.31.03.35.15.93.36,1.55.72.31.17.65.36.99.55.34.19.66.43.99.64.32.22.65.41.93.64.28.22.54.42.77.59.02-.02.05-.06.07-.08l-.73-.57.03-.04c.27.21.54.42.8.63.26.21.53.4.76.63.24.22.48.44.71.65.23.22.48.42.69.66.22.23.43.46.65.7.22.23.45.46.64.72.11.14.23.28.34.42-.09-.11-.18-.22-.24-.3.02-.02.04-.03-.25-.39.58.72,1.25,1.52,1.82,2.4.15.21.3.43.44.64.14.22.26.44.39.66.25.44.53.85.74,1.26.22.41.13-.07-.57-1.28-.18-.3-.32-.59-.5-.84-.17-.25-.34-.49-.5-.73-.17-.24-.33-.48-.5-.73-.19-.24-.39-.49-.61-.76l.04-.03c.29.36.66.81.98,1.31.16.24.33.48.49.71.16.23.31.44.43.64.13.2.03-.02-.07-.23-.1-.21-.23-.41-.08-.23.25.39.48.81.74,1.2-.18-.3-.37-.63-.57-.98-.21-.34-.46-.67-.69-1.01-.45-.69-.98-1.32-1.41-1.87-.26-.39-.58-.74-.54-.78-1.58-1.75-3.04-2.95-4.1-3.91-.18-.15-.77-.56-1.46-1.02-.36-.2-.75-.42-1.13-.63,0,0-.01,0-.02,0-.8-.48-1.66-.86-2.51-1.26-.48-.18-.96-.37-1.44-.55l-.36-.14-.37-.11-.74-.22-.74-.22c-.25-.07-.5-.11-.76-.17-.51-.1-1.01-.22-1.52-.31-.97-.12-1.94-.27-2.92-.29,0-1.62-.02-3.2-.04-4.67,0-.58-.03-1.12-.06-1.61,2.4.08,4.81.38,7.06.93Zm5.84,18.97c-.46.43-1.57,1.54-1.65,1.46-.02-.02.2-.24.43-.46-.08-.08.44-.89.66-1.11.18-.26,1.41-1.71,1.59-1.97.61-.72-1.67.99-2.62,1.83-.48.41-.09-.09-.15-.15-.43.46-.7.63-1.13,1.09-.02-.02-1.37,1.29-2.04,1.96,0,0-.2.24-.87.91-.22.22-.2.24-.18.26t-.04-.04c-.18.26-.67.67-.87.91t-.04-.04c-.41.48-.89.89-1.31,1.35t-.04-.04c-.22.22-.44.44-.46.43s-.02-.02-.04-.04c-.24.2-.65.69-.69.65t.04.04c-.89.89-1.57,1.54-2.26,2.18-.46.42-.93.87-1.42,1.35.02-3.8.06-7.52.13-11.08.03-.59.08-1.78.11-2.37.04-2.66.06-5.7.05-8.69,1.53.06,3.05.25,4.5.57.43.11.86.19.45.01.43.12.85.24,1.28.37.84.28.44.07,1.28.37l.63.22c.21.07.41.18.61.26l1.22.55c.77.44,1.58.83,2.3,1.35,1.51.95,2.86,2.13,4.11,3.4l.91.98.84,1.04c.29.34.53.71.79,1.08l.38.55c.13.18.25.37.36.56l.67,1.15c.23.38.4.8.6,1.19l.29.6c.1.2.17.41.25.62l.03.08c-3.77,0-7.53,0-11.3,0,.42-.43.82-.85,1.21-1.25.87-.91,1.33-1.78,1.33-1.78.18-.26.33-.56.07-.37Zm-3.01,25.7c.91.87,1.78,1.33,1.78,1.33.26.19.56.33.37.07-.43-.46-1.54-1.57-1.46-1.65.02-.02.24.2.46.43.08-.08.89.44,1.11.66.26.18,1.71,1.41,1.97,1.59.72.61-.99-1.67-1.83-2.62-.41-.48.09-.09.15-.15-.46-.43-.63-.7-1.09-1.13.02-.02-1.29-1.37-1.96-2.04,0,0-.24-.2-.91-.87-.06-.06-.1-.1-.13-.13,1.5.11,3.43.22,4.64.26,1.29.05,0,.13,0,.21,1.29-.03,1.93.05,3.22.03,0,0,.06,0,.17,0,.11,0,.27,0,.46,0,.39,0,.94.01,1.54.02,1.21,0,2.65.01,3.62.02,0,0,.37-.02,1.39-.02-.08.19-.16.38-.23.57-.08.2-.16.4-.24.59-.09.19-.19.38-.28.56-.18.37-.37.75-.56,1.13-.2.38-.43.76-.66,1.18-.02-.01-.07-.04-.31.37-.17.31-.4.6-.6.9-.21.3-.42.6-.63.91-.45.58-.91,1.14-1.34,1.67-.47.49-.91.95-1.29,1.36-.41.38-.78.68-1.05.9-.19.15-.37.3-.66.5-.29.2-.68.48-1.23.91l1.11-.87s-.05-.06-.05-.06c-1.45,1.2-3.46,2.43-5.15,3.23,0,0-.02-.05-.04-.07l-.85.39c-.23.06-.11-.04.23-.22.33-.19.91-.44,1.53-.82.31-.18.65-.37.99-.57.34-.2.67-.44,1-.66.32-.23.66-.42.93-.65.28-.22.54-.43.77-.61-.02-.02-.05-.06-.07-.08l-.73.57-.03-.04c.27-.21.54-.42.8-.63.26-.21.52-.4.76-.63.24-.22.47-.43.71-.65.23-.22.47-.42.68-.66.22-.23.43-.46.65-.69.22-.23.44-.46.64-.72.03-.04.07-.08.1-.12-.02-.02-.04-.03-.33.32.57-.72,1.25-1.5,1.81-2.37.15-.21.29-.43.44-.64.14-.22.26-.44.38-.66.24-.44.5-.86.69-1.27.17-.43-.06-.03-.79,1.13-.18.29-.32.58-.49.82-.17.25-.33.48-.49.72-.16.24-.32.47-.49.72-.19.23-.39.48-.6.74l-.04-.03c.29-.36.66-.79.97-1.27.16-.23.32-.47.48-.69.16-.22.3-.44.4-.64.1-.2-.03-.02-.16.17-.13.18-.29.36-.17.16.25-.38.46-.78.67-1.19-.17.3-.35.61-.54.95-.2.33-.43.65-.65.98-.43.67-.94,1.28-1.38,1.8-.29.34-.63.65-.67.61-1.47,1.72-2.99,2.75-4.13,3.45-.2.1-.76.47-1.41.91-.33.19-.69.39-1.04.59-.78.43-1.61.77-2.42,1.14-.45.16-.9.33-1.36.49l-.34.12-.35.1-.7.19-.7.19c-.23.07-.47.1-.71.15-.47.09-.95.19-1.42.27-.96.11-1.91.25-2.88.24-.13,0-.25,0-.38.01.03-1.41.09-2.63.17-3.65.04-.44.03-2.22.03-3.84.06-4.66.08-9.44.11-14.16,1.21,1.25,2.4,2.48,3.51,3.68.2.24.61.72.81.96,1.72,1.83,3.96,4.04,5.78,5.78Zm-.17,8.86c.09-.04.18-.08.26-.12-.09.04-.18.09-.26.12Zm.45-.22s.04-.02.05-.03c-.02,0-.04.02-.05.03Zm-10.95,10.93s-.03,0-.04,0v-3.1h.05c0,.87-.01,2.06-.01,3.1Zm-22.44-21.8c.1.2.21.49.38.79.16.3.34.61.51.91.31.6.63,1.07.58,1.1-.01,0-.08-.08-.18-.22-.1-.14-.23-.32-.34-.52-.08.06-.97-1.01-1.18-1.43-.12-.2-.53-.89-.91-1.61-.09-.19-.17-.37-.26-.55,2.17,0,4.3-.02,6.24-.04,2.58-.03,4.51-.32,4.51-.32.64-.05,1.29-.16.64-.21-1.29-.03-4.5-.03-4.5-.13,0-.03.64-.03,1.29-.03,0-.11,1.93-.32,2.57-.32.46-.04,2.58-.13,3.98-.2-2.31,2.31-4.64,4.59-6.91,6.94.91-.87,1.61-1.5,2.48-2.41.02.02.06.06.28-.17,1.35-1.31,2.87-2.91,3.61-3.5.22-.19.48-.35,1.04-.89,0,0,0,0,0,0-.17.17-.35.35-.52.52l.06.06c.19-.19.4-.39.61-.59.21-.01.38-.02.48-.03-.23.23-.45.45-.62.64.02.02.06.06.08.08l.44-.44.04.04c-1.03,1.03-1.92,1.92-2.89,2.89.02.02.04.04.26-.18-.89.89-2.02,1.98-2.87,2.91-.2.24.08.08.76-.57.67-.67,1.11-1.11,1.78-1.78l.04.04c-.44.44-1.13,1.09-1.56,1.56-.2.24.5-.39.3-.15-.22.22-.44.44-.65.69.67-.67,1.54-1.57,2.22-2.22.24-.2.48-.41.52-.37,1.09-1.13,2.04-1.96,2.8-2.53.2-.14.86-.81,1.47-1.42,1.46-1.39,2.93-2.83,4.4-4.27.01,1.8.03,3.59.05,5.32,0,.59.05,1.18.11.59v1.78c0,1.18.08.59.08,1.78.06,3.98.06,7.96.06,11.93-.35-.02-.7-.04-1.04-.05-.47-.05-.94-.12-1.41-.18-.23-.03-.47-.05-.7-.1l-.69-.15c-1.84-.35-3.57-.99-5.17-1.74-.39-.22-1.18-.61-1.54-.87-.38-.22-.77-.45-1.17-.69-.38-.26-.78-.53-1.17-.8-.41-.26-.78-.58-1.17-.88l-.58-.46c-.19-.15-.37-.33-.55-.49-.36-.34-.75-.65-1.08-1.01-.34-.36-.68-.71-1.01-1.06-.32-.36-.61-.74-.91-1.09-.31-.35-.56-.73-.82-1.09-.25-.36-.52-.68-.73-.99-.21-.31-.41-.57-.59-.79-.17-.22-.32-.4-.42-.52-.09-.12-.14-.19-.14-.19-.24-.38-.53-.74-.38-.31Zm14.59-2.97c-.11-.02-.24-.03-.39-.05.71-.69,1.48-1.42,2.12-2.04l.06.06.44-.44c.47-.25-1.05,1.28-2.23,2.48Zm5.16-11.2c-.22-.22-.44-.44-.67-.67-.44-.44-.28-.17-.72-.61-3.65-3.46-7.11-7.11-10.72-10.61.87.91,1.5,1.61,2.41,2.48-.02.02-.06.06.17.28,1.31,1.35,2.91,2.87,3.5,3.61.2.24.37.52,1.04,1.19-.22-.22-.44-.44-.67-.67-.02.02-.06.06-.06.06.87.91,1.96,2.04,2.83,2.95,0,0-.04.04-.06.06l.44.44c.31.58-2.11-1.89-3.24-2.98-.02.02-.06.06-.08.08l.44.44-.04.04c-1.03-1.03-1.92-1.92-2.89-2.89-.02.02-.04.04.18.26-.89-.89-1.98-2.02-2.91-2.87-.24-.2-.08.08.57.76.67.67,1.11,1.11,1.78,1.78l-.04.04c-.44-.44-1.09-1.13-1.56-1.56-.24-.2.39.5.15.3-.22-.22-.44-.44-.69-.65.67.67,1.57,1.54,2.22,2.22.2.24.41.48.37.52.69.67,1.27,1.29,1.75,1.84-2.57-.03-4.5-.08-7.07-.05,0-.03,0-.08-.64-.08-3.86-.03-8.37.03-10.3-.08-.64-.03-1.29-.11-3.22-.11h1.93v-.08c-1.34-.01-2.86-.03-4.36-.04.03-.03.08-.13.14-.29,1.32,0,2.62,0,3.58-.02v-.11h-1.29v-.05h6.31s-.02.07-.02.09c-.12.44-.02.32.21-.09h1.88s0-.05-.64-.05c2.58,0,5.79.03,8.37-.03.64-.03,0-.11-1.93-.13h-5.15v-.05c1.29,0,3.22.03,4.51,0,.64-.03-1.29-.08-.64-.11.64,0,1.29,0,1.93-.03-1.93,0-4.51.03-6.44,0-.64-.03-1.29-.05-1.29-.11-.11,0-.21,0-.32,0,.05-.1.11-.21.17-.32.13-.24.26-.51.4-.77.16-.26.32-.53.47-.8.15-.27.3-.53.44-.77.15-.24.3-.45.42-.64.5-.75.11.07.18.1.21-.39.39-.67.57-.96.19-.27.4-.54.64-.91,0,0,1.59-2.14,2.57-3.05,0,0,.07-.09.26-.29.18-.21.52-.5,1-.95.33-.3.31-.32.29-.34t.03.04c.3-.34,1.04-.83,1.37-1.13t.03.04c.33-.3.72-.52,1.08-.77.37-.25.74-.49,1.13-.71t.03.05c.39-.22.77-.43.78-.41t.03.05c.38-.22,1.18-.6,1.2-.57t-.02-.05c.4-.18.77-.38,1.14-.5.37-.13.72-.26,1.06-.38.17-.06.33-.12.5-.18.17-.04.33-.09.5-.13.33-.09.65-.17.96-.26.11-.03.21-.06.32-.08.11-.02.22-.04.33-.06.22-.04.45-.08.68-.12.46-.08.92-.19,1.41-.22.48-.05.97-.11,1.47-.16.31-.01.62-.03.93-.04,0,.28,0,.6,0,.98,0,.59.03.59.05.59h-.05c.05.59,0,1.78.03,2.37h-.05c.05,1.18,0,2.37.03,3.55h-.05c0,.59,0,1.18-.03,1.18h-.05c-.03.59.03,1.78-.03,1.78h.05c0,2.37-.03,4.15-.05,5.93-.04,1.71-.06,3.57-.06,5.49-.31-.3-.61-.59-.91-.88-.22-.22-.48-.41-.3-.15Zm1.74,27.54c.03-.59.11-1.18.11-2.96v1.78h.08c.03-2.37.05-5.34.08-7.71h.08v-1.18c.19-1.19.16,5.34.19,8.3h.11v-1.19h.05v3.07c-.23,0-.46,0-.69-.02,0-.03,0-.06,0-.09Zm12.41-47.59s.05.03.07.04c-.02-.01-.05-.03-.07-.04Zm-11.3-8.14s-.03-.49-.03-1.03c.04,0,.07,0,.11,0-.02.6-.04,1.03-.08,1.03Zm-32.25,21.79c.14-.36.28-.75.43-1.16.18-.4.37-.8.55-1.2.18-.4.36-.79.52-1.15.17-.36.36-.68.51-.97.61-1.13.12.06.19.09.27-.58.49-1,.71-1.42.23-.42.51-.81.82-1.37,0,0,.04-.05.09-.14.06-.09.14-.22.24-.39.1-.16.22-.36.36-.58.15-.21.32-.44.49-.68.35-.48.73-1.02,1.11-1.52.4-.48.79-.93,1.1-1.3,0,0,.1-.13.35-.43.12-.16.3-.35.53-.58.23-.23.51-.52.84-.86.45-.45.43-.47.41-.49t.04.04c.19-.26.57-.55.93-.86.36-.31.73-.61.96-.83t.03.04c.12-.11.23-.22.35-.32l.38-.29.77-.56c.52-.37,1.03-.75,1.57-1.07t.03.04c.54-.33,1.08-.66,1.1-.64t.03.05c.54-.34,1.67-.91,1.68-.88t-.02-.05c.28-.14.56-.28.82-.41.27-.13.52-.27.79-.36.53-.21,1.02-.4,1.5-.59.24-.09.48-.18.71-.27.24-.07.47-.14.71-.21.46-.14.92-.27,1.38-.4.15-.04.31-.09.46-.13.16-.04.32-.06.48-.1.32-.06.64-.13.97-.19.65-.13,1.32-.29,2.01-.35.69-.08,1.39-.18,2.1-.26.6-.03,1.2-.05,1.81-.08-.01.49-.03.96-.02,1.61-.02,0-.05,2.77-.05,4.65-.36.01-.71.03-1.07.04-.51.04-1.01.11-1.52.16-.25.03-.5.05-.75.09l-.74.14c-1.98.33-3.88.95-5.65,1.68-.44.19-1.35.51-1.78.75-.42.23-.86.47-1.31.71-.43.27-.86.56-1.31.85-.45.28-.86.62-1.29.95l-.64.5c-.21.17-.4.36-.61.54-.39.37-.81.72-1.18,1.12-.37.4-.73.79-1.09,1.18-.34.4-.65.82-.97,1.22-.33.39-.6.81-.86,1.21-.26.41-.52.78-.69,1.15-.18.37-.32.7-.44.98-.12.28-.2.5-.26.66-.05.16-.07.25-.07.25-.16.46-.27.93-.02.52.11-.21.24-.51.43-.81.18-.3.38-.63.56-.93.35-.61.73-1.07.77-1.04.01,0-.05.11-.15.25-.1.14-.23.34-.34.55.09.06-.44,1.37-.64,1.78-.07.22-.39.97-.67,1.73-.13.42-.26.84-.37,1.17-2.92.01-5.3-.06-7.1-.19-.21-.02-.68-.03-1.28-.03.07-.19.15-.39.24-.6Zm-.73,1.5c-.03.17-.04.26-.04.29-1.38-.01-2.76-.03-3.99-.04v-.08h-1.29c-.89-.13,2.23-.16,5.31-.17Zm-3.45,15.24v.05c-2.58,0-4.51-.03-6.44-.05h-.24s-.06,0-.06,0c0,0,0,0,0,0h0s-.02-.01-.02-.01c-.01,0-.01-.02,0-.03h0c0-.17,0-.32,0-.48,0-.35,0-.7,0-1.05,0-1.42,0-2.89,0-4.38,0-1.49-.01-3-.02-4.5,0-.75-.01-1.5-.02-2.24,0-.37,0-.74,0-1.11v-.27s0-.12,0-.12h0s0-.03,0-.03c-.02-.04.05-.07-.07-.13h1.15c1.29,0,.64-.08,1.93-.08,10.3-.13,20.6,0,30.89-.08.3.35.56.67.78.96.14.2.81.86,1.42,1.47,1.39,1.46,2.83,2.93,4.27,4.4-1.8.01-3.59.03-5.32.05-.59,0-1.18.05-.59.11h-1.78c-1.18,0-.59.08-1.78.08-9.49.13-18.97,0-28.46.08,2.37.03,4.15.08,6.52.05,0,.03,0,.08.59.08,3.56.03,7.71-.03,9.48.08.59.03,1.18.11,2.96.11h-1.78v.08c2.37.03,5.34.05,7.71.08v.08h1.18c1.19.19-5.34.16-8.3.19v.11h1.19v.05h-7.71s0,.05.59.05c-2.37,0-5.34-.03-7.71.03-.59.03,0,.11,1.78.13h4.74v.05c-1.19,0-2.96-.03-4.15,0-.59.03,1.19.08.59.11-.59,0-1.19,0-1.78.03,1.78,0,4.15-.03,5.93,0,.59.03,1.19.05,1.19.11,2.96-.03,5.33.05,7.11.19.44.04,2.22.03,3.84.03,4.54.06,9.2.08,13.82.1-.4.41-.8.82-1.18,1.22-.22.22-.41.48-.15.3-.22.22-.44.44-.67.67-.44.44-.17.28-.61.72-1.12,1.18-2.26,2.34-3.41,3.49-1.53-.14-4.08-.29-5.56-.33-1.29-.05,0-.13,0-.21-1.29.03-1.93-.05-3.22-.03,0,0-.06,0-.17,0-.11,0-.27,0-.46,0-.39,0-.94-.01-1.54-.02-1.21,0-2.65-.01-3.62-.02,0,0-.64.03-2.57.03-.64,0-.64.03-.64.05v-.05c-.64.05-1.93,0-2.58.03v-.05c-1.29.05-2.57,0-3.86.03v-.05c-.64,0-1.29,0-1.29-.03v-.05c-.64-.03-1.93.03-1.93-.03Zm31.2,25.25c-.33-.05-.67-.08-1-.15-.33-.07-.65-.15-.98-.22-.33-.07-.65-.15-.98-.22-.32-.07-.65-.14-.96-.25-.63-.2-1.26-.4-1.88-.6-.32-.09-.61-.22-.91-.35-.3-.13-.6-.25-.9-.37-.3-.12-.59-.25-.89-.37-.29-.13-.57-.29-.85-.43-.55-.32-1.68-.89-2.19-1.28-.54-.34-1.09-.68-1.65-1.03-.54-.4-1.09-.8-1.64-1.21-.57-.39-1.08-.88-1.62-1.33-.27-.23-.54-.46-.81-.69-.26-.24-.5-.5-.76-.75l-.75-.76c-.25-.25-.5-.5-.72-.78-.46-.54-.91-1.07-1.36-1.6-.81-1.12-1.64-2.18-2.26-3.28-.16-.27-.33-.53-.49-.78-.16-.25-.32-.48-.44-.72-.26-.47-.51-.88-.72-1.22-.21-.34-.38-.61-.51-.8-.1-.19-.17-.3-.17-.3-.28-.57-.61-1.13-.43-.52.12.3.25.72.46,1.16.21.44.43.91.64,1.34.38.89.8,1.58.75,1.61-.01,0-.1-.13-.23-.33-.06-.1-.14-.22-.21-.35-.07-.14-.14-.28-.21-.43-.05.02-.33-.37-.64-.86-.3-.48-.66-1.04-.76-1.35-.14-.3-.62-1.33-1.06-2.39-.17-.48-.33-.95-.47-1.36,2.66.03,5.57.03,8.42.02.08.28.16.57.24.87.11.3.23.6.34.9.12.3.24.6.34.87.12.27.25.51.36.72.43.85-.11.07-.18.1.25.41.42.72.59,1.04.18.31.38.61.66,1,0,0,.02.04.06.11.04.07.11.17.19.29.08.12.17.27.29.42.12.15.25.32.39.5.28.35.58.75.89,1.1.32.35.63.67.87.94,0,0,.09.09.3.3.21.22.58.52,1.1,1.01.35.32.37.3.39.28t-.03.04c.39.28,1.12.89,1.51,1.17l-.03.04c.39.28.8.52,1.19.8.39.27.79.55,1.22.76t-.03.05c.42.24.84.47.82.49t-.03.05c.4.28,1.31.61,1.28.67t.02-.05c.44.19.84.41,1.24.56.4.15.78.3,1.14.44.18.07.36.14.54.21.18.06.36.11.53.16.35.11.7.21,1.04.32.12.04.23.07.35.11.12.03.24.06.36.08.24.05.49.11.74.16.5.11,1.01.23,1.54.28.53.07,1.06.14,1.61.2.4.02.8.03,1.2.05,0,2.09,0,4.17,0,6.26-.62-.03-1.24-.07-1.86-.09-.68-.07-1.35-.18-2.02-.27Zm4.04.36c0-2.2,0-4.5.02-6.26.09,0,.19,0,.28.01.16,0,.31,0,.47,0v2.58s.05,0,.05-.59c0,1.31,0,2.81,0,4.29-.27,0-.54,0-.81-.02Zm33.61-22.45c-.09.29-.18.58-.27.86-.1.28-.22.55-.33.82-.22.55-.44,1.09-.66,1.65-.23.56-.53,1.11-.81,1.72-.02-.01-.07-.04-.37.57-.21.46-.49.89-.75,1.33-.26.44-.53.89-.8,1.33-.57.86-1.18,1.68-1.74,2.47-.62.73-1.2,1.41-1.71,2.01-.54.57-1.03,1.02-1.4,1.36-.25.22-.49.45-.87.77-.39.31-.91.73-1.67,1.38l1.52-1.3s-.05-.06-.05-.06c-1.96,1.8-4.73,3.66-7.07,4.88,0,0-.02-.05-.04-.07l-1.18.59c-.32.11-.14-.02.33-.28.47-.28,1.28-.64,2.14-1.21.44-.27.9-.56,1.38-.85.47-.31.92-.66,1.37-.99.23-.17.45-.33.67-.49.11-.08.22-.16.32-.24.1-.09.2-.17.29-.25.38-.33.74-.64,1.05-.91-.02-.02-.05-.06-.07-.08l-.99.85-.03-.04c.37-.32.74-.63,1.1-.94.36-.31.72-.6,1.03-.94.32-.33.64-.65.96-.97.32-.32.64-.64.92-.99.29-.34.58-.69.87-1.03.29-.35.59-.69.85-1.07.12-.17.25-.35.38-.53-.09.13-.18.25-.25.35-.02-.02-.04-.03-.42.5.38-.53.78-1.1,1.2-1.68.1-.15.21-.29.31-.44.1-.15.19-.31.28-.47.19-.31.38-.63.56-.94.19-.32.38-.63.56-.94.16-.33.32-.65.47-.97.15-.32.31-.64.45-.95.15-.31.3-.61.4-.92.2-.62-.04-.01-.95,1.71-.22.43-.4.85-.61,1.21-.22.37-.43.71-.63,1.06-.21.35-.42.7-.63,1.06-.25.35-.51.71-.79,1.11l-.04-.03c.19-.26.4-.56.63-.87.23-.31.42-.67.63-1.01.21-.35.42-.7.61-1.03.1-.17.19-.33.28-.48.08-.16.15-.32.22-.46.13-.3-.03-.02-.19.27-.16.28-.36.54-.2.26.31-.57.58-1.16.84-1.75-.21.44-.44.91-.68,1.4-.24.49-.56.96-.84,1.45-.14.24-.29.49-.43.73-.07.12-.14.24-.21.36-.08.11-.16.22-.24.34-.32.44-.63.87-.91,1.26-.2.25-.39.52-.56.69-.17.17-.29.29-.31.27-1.97,2.56-4.04,4.16-5.6,5.27-.28.17-1.06.72-1.96,1.38-.46.3-.97.6-1.46.9-1.08.66-2.25,1.18-3.4,1.75-.64.25-1.28.5-1.92.75l-.48.19c-.16.06-.33.1-.49.15l-.99.3-.99.3c-.33.1-.67.15-1.01.23-.68.14-1.35.3-2.03.42l-2.06.26-.51.06c-.17.02-.34.02-.52.02l-1.03.04c-.31.02-.61.03-.92.04,0-1.27,0-2.6,0-3.69.03-.59.05-1.19.11-1.19,0-.49,0-.95,0-1.4,1.92-.06,3.86-.31,5.66-.77.47-.12.91-.31.44-.23.46-.13.92-.26,1.38-.4.91-.3.43-.23,1.33-.56l.67-.26c.22-.09.43-.2.65-.3l1.29-.62c.82-.49,1.68-.92,2.45-1.48,1.6-1.04,3.06-2.29,4.4-3.65l.98-1.04.9-1.11c.31-.36.57-.76.85-1.15l.41-.59c.14-.19.27-.39.38-.6l.72-1.24c.24-.41.42-.86.63-1.28l.31-.65c.1-.22.18-.44.26-.67l.25-.65c.32,0,.71,0,1.17,0,.64,0,.64-.03.64-.05v.05c.64-.05,1.93,0,2.58-.03v.05c1.29-.05,2.57,0,3.86-.03v.05c.16,0,.31,0,.46,0-.11.35-.21.69-.32,1.02Zm-17.53,18.78c.12-.06.25-.12.37-.18-.13.06-.25.12-.37.18Zm.56-.29c.07-.04.13-.08.2-.11-.03.02-.05.03-.08.05-.04.03-.08.04-.12.07Zm27.12-35.97v.17s-.01,2.09-.01,2.09c0,1.39-.01,2.79-.02,4.17-.02,2.67-.03,5.31-.05,7.91v.11s-.05.06-.08.05h-.11s-.05,0-.05,0h-.2c-.67-.01-1.34-.02-2-.03-1.32-.02-2.63-.04-3.92-.06-.64-.03-1.93-.08-2.58-.11-5.15-.08-11.58-.05-16.73,0-2.58.03-4.51.32-4.51.32-.64.05-1.29.16-.64.21,1.29.03,4.5.03,4.5.13,0,.03-.64.03-1.29.03,0,.11-1.93.32-2.57.32-.44.04-2.37.12-3.76.19-.21-.21-.44-.46-.59-.59t.04-.04c-.48-.41-.89-.89-1.35-1.31t.04-.04c-.22-.22-.44-.44-.43-.46t.04-.04c-.2-.24-.69-.65-.65-.69t-.04.04c-.89-.89-1.54-1.57-2.18-2.26-.42-.46-.87-.93-1.35-1.42,3.8.02,7.52.06,11.08.13.59.03,1.78.08,2.37.11,4.74.08,10.67.05,15.41,0,2.37-.03,4.15-.32,4.15-.32.59-.05,1.19-.16.59-.21-1.19-.03-4.15-.03-4.15-.13,0-.03.59-.03,1.18-.03,0-.11,1.78-.32,2.37-.32.59-.05,4.15-.21,4.74-.27,1.78-.08-3.56-.48-5.93-.56-1.19-.05,0-.13,0-.21-1.19.03-1.78-.05-2.97-.03,0-.03-3.55-.05-5.33-.05,0,0-.59.03-2.37.03-.59,0-.59.03-.59.05v-.05c-.59.05-1.78,0-2.37.03v-.05c-1.18.05-2.37,0-3.55.03v-.05c-.59,0-1.18,0-1.18-.03v-.05c-.59-.03-1.78.03-1.78-.03v.05c-2.37,0-4.15-.03-5.93-.05-1.8-.04-3.77-.06-5.82-.06,1.14-1.1,2.26-2.18,3.36-3.2.24-.2.72-.61.96-.81,1.42-1.33,3.05-2.97,4.52-4.48,1.5.02,2.92.04,4.61.02,0,.03,0,.08.64.08,2.03.01,4.24,0,6.16.01l.3.76h-1.31s0,.05.64.05c-2.58,0-5.79-.03-8.37.03-.64.03,0,.11,1.93.13h5.15v.05c-1.29,0-3.22-.03-4.51,0-.64.03,1.29.08.64.11-.64,0-1.29,0-1.93.03,1.93,0,4.51-.03,6.44,0,.64.03,1.29.05,1.29.11,3.22-.03,5.79.05,7.72.19.49.04,2.46.03,4.23.03,2.58.02,5.18.05,7.8.07h.15s.11,0,.13.06c.01.05,0,.1,0,.15Z"/><path class="cls-2" d="m97.98,87.56c-.05.08-.1.17-.15.25.02-.02.04-.05.05-.07.04-.06.07-.12.1-.17Z"/><path class="cls-2" d="m97.47,88.32s-.02.02-.02.03c0-.01.02-.02.02-.03,0,0,0,0,0,0Z"/><path class="cls-2" d="m96.96,89.04c.04-.05.07-.1.11-.16-.04.05-.08.11-.11.16Z"/><path class="cls-2" d="m97.98,87.56c.07-.11.13-.23.2-.34-.06.1-.13.21-.2.34Z"/><path class="cls-2" d="m97.45,88.35c-.13.18-.26.36-.38.53.11-.15.21-.3.32-.45.02-.03.04-.05.05-.08Z"/><path class="cls-2" d="m97.83,87.81c-.12.16-.24.34-.36.51.11-.16.22-.31.34-.47,0-.01.02-.03.02-.04Z"/><path class="cls-2" d="m97.88,50.94c-.11-.16-.23-.32-.34-.47.12.17.25.35.36.51,0-.01-.02-.03-.02-.04Z"/><path class="cls-2" d="m97.54,50.46s-.02-.03-.03-.04c.01.01.02.03.03.04,0,0,0,0,0,0Z"/><path class="cls-2" d="m97.46,50.35s-.03-.04-.05-.06c.03.04.06.09.09.13-.02-.02-.03-.05-.05-.07Z"/><path class="cls-2" d="m97.96,51.05s-.04-.05-.05-.07c.05.08.11.16.16.25-.03-.06-.07-.11-.1-.17Z"/><path class="cls-2" d="m98.06,51.22c.07.12.14.24.2.34-.07-.11-.14-.23-.2-.34Z"/><path class="cls-2" d="m58.19,81.61c.12-.12.24-.24.36-.36-.13.13-.26.26-.36.36Z"/><path class="cls-2" d="m58.79,81.01c-.08.08-.16.16-.24.24.08-.08.16-.16.24-.24Z"/><path class="cls-2" d="m58.79,81.01c.1-.1.2-.2.29-.29h0c-.08.08-.18.18-.29.29Z"/><path class="cls-2" d="m58.13,58.5c.31.31.6.6.89.89h0c-.22-.22-.67-.67-.89-.89Z"/><path class="cls-1" d="m69.84,8c34.1,0,61.84,27.74,61.84,61.84s-27.74,61.84-61.84,61.84S8,103.94,8,69.84,35.74,8,69.84,8M69.84,0C31.27,0,0,31.27,0,69.84s31.27,69.84,69.84,69.84,69.84-31.27,69.84-69.84S108.42,0,69.84,0h0Z"/></svg>